<?xml version="1.0" standalone="no"?>
<!DOCTYPE svg PUBLIC "-//W3C//DTD SVG 20010904//EN"
 "http://www.w3.org/TR/2001/REC-SVG-20010904/DTD/svg10.dtd">
<svg version="1.0" xmlns="http://www.w3.org/2000/svg"
 width="512.000000pt" height="512.000000pt" viewBox="0 0 512.000000 512.000000"
 preserveAspectRatio="xMidYMid meet">

<g transform="translate(0.000000,512.000000) scale(0.100000,-0.100000)"
fill="#000000" stroke="none">
<path d="M2632 4518 c-7 -7 -12 -30 -12 -51 0 -63 -38 -232 -71 -315 -59 -149
-132 -264 -314 -497 -323 -412 -427 -649 -427 -970 0 -148 22 -277 73 -422 59
-167 124 -275 234 -392 56 -59 63 -71 37 -55 -133 76 -280 277 -340 464 -49
154 -53 267 -18 521 38 268 37 266 20 284 -8 8 -23 15 -33 15 -17 0 -210 -214
-263 -291 -97 -145 -149 -303 -149 -459 -1 -129 19 -218 71 -325 123 -252 403
-427 723 -452 72 -5 80 -4 102 17 14 13 28 38 31 57 l6 33 58 -54 c61 -56 103
-72 144 -56 29 11 36 23 74 126 16 44 36 93 45 109 15 29 15 26 11 -65 -5 -84
-3 -99 15 -127 29 -46 58 -50 143 -19 40 14 134 44 208 67 216 66 323 119 437
215 111 95 204 254 245 420 30 124 30 347 -1 529 -55 331 -143 530 -295 673
-114 106 -140 97 -124 -43 6 -49 11 -180 11 -290 1 -175 -2 -210 -21 -278 -23
-85 -81 -214 -130 -292 -41 -64 -40 -56 2 36 173 376 136 752 -142 1430 -111
273 -178 382 -270 440 -51 32 -62 35 -80 17z m151 -222 c46 -94 205 -501 250
-641 58 -181 71 -262 71 -435 1 -175 -14 -259 -71 -424 -64 -185 -140 -315
-348 -596 -75 -102 -164 -231 -198 -287 -33 -57 -63 -103 -67 -103 -12 0 -236
235 -272 285 -74 103 -140 267 -172 427 -22 108 -21 300 3 408 47 210 107 325
410 784 191 291 279 476 296 626 10 85 13 89 39 57 13 -16 39 -61 59 -101z
m682 -1061 c113 -238 148 -474 110 -730 -22 -145 -52 -248 -101 -351 -72 -151
-132 -189 -440 -278 -104 -30 -202 -59 -218 -65 l-28 -11 7 37 c22 122 72 208
226 393 129 155 167 212 220 326 99 214 142 510 116 794 l-8 85 37 -55 c20
-30 55 -95 79 -145z m-1761 -476 c-46 -307 -23 -536 74 -743 22 -46 54 -105
71 -130 18 -25 27 -46 22 -46 -21 0 -132 73 -186 122 -110 101 -175 223 -196
370 -10 73 -9 101 5 182 18 112 42 174 101 266 42 65 124 164 131 157 2 -2 -8
-82 -22 -178z"/>
<path d="M3438 1675 c-2 -3 -74 -12 -159 -20 -224 -22 -303 -39 -462 -101
-199 -77 -203 -79 -218 -113 -10 -21 -19 -29 -29 -25 -8 3 -78 21 -155 39
-209 50 -408 75 -717 91 l-137 7 -41 -64 c-54 -83 -74 -154 -67 -237 3 -35 9
-68 14 -73 5 -5 71 -21 146 -35 75 -15 134 -30 132 -35 -3 -4 -33 -13 -66 -20
-66 -13 -99 -38 -99 -75 0 -20 -7 -23 -58 -29 -50 -6 -63 -13 -105 -54 -74
-71 -101 -122 -101 -195 0 -68 20 -115 76 -179 38 -44 78 -56 182 -57 68 0 70
1 106 40 20 22 45 40 54 40 22 0 563 287 588 312 10 10 18 32 18 49 0 21 4 30
13 26 6 -2 129 -43 272 -90 354 -116 598 -174 761 -182 39 -1 81 -8 94 -15 12
-7 48 -14 79 -17 89 -7 116 13 174 125 55 108 60 159 26 259 -27 82 -45 96
-125 101 -44 3 -64 8 -64 18 0 7 -10 25 -22 39 -19 21 -37 28 -98 36 -41 6
-82 13 -90 16 -8 3 41 20 110 39 68 19 148 45 177 59 60 27 68 44 67 140 -1
94 -37 146 -118 170 -47 14 -147 21 -158 10z m137 -86 c40 -36 67 -105 46
-119 -8 -4 -84 -27 -170 -50 -141 -38 -167 -42 -267 -42 -104 1 -266 22 -316
41 l-23 9 25 10 c14 5 42 17 63 25 21 9 126 42 235 73 344 99 353 100 407 53z
m-1809 -114 c216 -29 689 -138 984 -228 102 -31 570 -157 584 -157 2 0 -4 -20
-15 -45 -11 -25 -23 -68 -26 -96 l-6 -51 -51 6 c-214 27 -616 113 -1086 234
-233 60 -368 85 -527 98 l-83 7 0 51 c0 64 13 109 45 158 29 44 28 44 181 23z
m1877 -413 c21 -19 22 -54 1 -118 -20 -59 -37 -80 -72 -89 -20 -5 -31 -1 -44
15 -34 42 -16 129 37 186 34 36 42 37 78 6z m-1748 -13 c55 -15 255 -99 255
-107 0 -8 -340 -185 -344 -180 -1 2 -8 23 -15 48 -13 46 -48 122 -82 176 l-19
31 52 21 c62 23 98 26 153 11z m-308 -154 c16 -11 22 -22 19 -38 -3 -12 -8
-53 -11 -90 -4 -38 -12 -70 -18 -72 -61 -18 -79 -15 -113 19 -50 50 -44 118
14 179 30 31 63 31 109 2z"/>
</g>
</svg>
