<svg version="1.0" xmlns="http://www.w3.org/2000/svg"
 width="332.000000pt" height="115.000000pt" viewBox="0 0 332.000000 115.000000"
 preserveAspectRatio="xMidYMid meet">
<g transform="translate(0.000000,115.000000) scale(0.100000,-0.100000)"
fill="#d48642" stroke="none">
<path d="M1300 570 c0 -347 3 -530 10 -530 7 0 10 183 10 530 0 347 -3 530
-10 530 -7 0 -10 -183 -10 -530z"/>
<path d="M1490 850 l0 -250 70 0 c56 0 70 3 70 15 0 11 -12 15 -50 15 l-50 0
0 214 0 215 47 3 c36 2 49 7 51 21 3 15 -5 17 -67 17 l-71 0 0 -250z"/>
<path d="M1670 850 c0 -243 1 -250 20 -250 13 0 20 7 20 20 0 16 7 20 30 20
23 0 30 -4 30 -20 0 -13 7 -20 20 -20 19 0 20 7 20 250 l0 250 -70 0 -70 0 0
-250z m100 10 l0 -200 -30 0 -30 0 0 200 0 200 30 0 30 0 0 -200z"/>
<path d="M1850 850 c0 -243 1 -250 20 -250 19 0 20 7 20 211 0 191 2 211 16
205 9 -4 23 -1 30 5 12 10 14 -23 14 -205 0 -209 1 -216 20 -216 19 0 20 7 20
250 0 269 0 269 -50 238 -16 -10 -24 -10 -40 0 -50 31 -50 31 -50 -238z"/>
<path d="M2030 850 c0 -243 1 -250 20 -250 19 0 20 7 20 185 l0 185 50 0 50 0
0 65 0 65 -70 0 -70 0 0 -250z m100 185 c0 -21 -5 -25 -30 -25 -25 0 -30 4
-30 25 0 21 5 25 30 25 25 0 30 -4 30 -25z"/>
<path d="M2210 850 c0 -243 1 -250 20 -250 19 0 20 7 20 250 0 243 -1 250 -20
250 -19 0 -20 -7 -20 -250z"/>
<path d="M2290 850 c0 -243 1 -250 20 -250 19 0 20 7 20 230 l0 230 30 0 30 0
0 -230 c0 -223 1 -230 20 -230 19 0 20 7 20 250 l0 250 -70 0 -70 0 0 -250z"/>
<path d="M2470 850 l0 -250 70 0 70 0 -2 212 c-3 196 -4 213 -21 216 -10 2
-25 1 -34 -2 -15 -6 -14 -8 1 -19 15 -11 16 -33 14 -192 l-3 -180 -25 0 -25 0
-3 212 -2 212 47 3 c36 2 49 7 51 21 3 15 -5 17 -67 17 l-71 0 0 -250z"/>
<path d="M340 1080 c0 -5 5 -10 10 -10 6 0 10 5 10 10 0 6 -4 10 -10 10 -5 0
-10 -4 -10 -10z"/>
<path d="M576 1049 c-36 -43 -31 -92 13 -126 19 -15 97 -17 106 -3 3 6 0 10
-8 10 -8 0 -29 14 -47 30 -30 28 -32 35 -28 75 3 25 2 45 -2 45 -5 0 -20 -14
-34 -31z"/>
<path d="M820 1065 c0 -8 7 -15 15 -15 8 0 15 7 15 15 0 8 -7 15 -15 15 -8 0
-15 -7 -15 -15z"/>
<path d="M80 980 c0 -11 7 -20 15 -20 8 0 15 9 15 20 0 11 -7 20 -15 20 -8 0
-15 -9 -15 -20z"/>
<path d="M908 956 c-18 -26 -41 -61 -51 -77 -19 -29 -19 -29 2 -29 12 0 21 -2
21 -5 0 -3 -16 -29 -35 -58 -33 -48 -34 -52 -15 -55 26 -4 25 -10 -5 -54 -14
-20 -25 -42 -25 -47 0 -7 50 -11 145 -11 80 0 145 3 145 8 0 4 -11 24 -25 44
-29 42 -31 58 -10 58 21 0 19 9 -15 60 -34 51 -36 60 -15 60 22 0 19 12 -21
71 -60 89 -58 88 -96 35z"/>
<path d="M1060 970 c0 -5 5 -10 10 -10 6 0 10 5 10 10 0 6 -4 10 -10 10 -5 0
-10 -4 -10 -10z"/>
<path d="M303 875 l-62 -94 30 -3 30 -3 -46 -64 c-25 -36 -45 -69 -45 -73 0
-4 11 -8 25 -8 14 0 25 -2 25 -5 0 -3 -16 -29 -35 -58 -19 -28 -35 -55 -35
-59 0 -5 83 -8 185 -8 102 0 185 2 185 6 0 3 -18 32 -40 65 l-41 59 31 0 c16
0 30 2 30 5 0 2 -20 33 -45 68 -25 36 -45 68 -45 71 0 3 12 6 26 6 14 0 24 3
22 8 -9 21 -122 182 -127 182 -3 -1 -34 -43 -68 -95z"/>
<path d="M626 764 c-43 -47 -76 -88 -73 -91 3 -3 41 32 84 77 l79 83 43 -22
c23 -12 48 -20 54 -18 11 4 -83 57 -100 57 -4 0 -43 -39 -87 -86z"/>
<path d="M1075 830 c-16 -11 -25 -20 -18 -20 19 0 63 22 63 32 0 13 -13 10
-45 -12z"/>
<path d="M554 809 c-10 -17 13 -36 27 -22 12 12 4 33 -11 33 -5 0 -12 -5 -16
-11z"/>
<path d="M140 790 c0 -15 5 -20 18 -18 9 2 17 10 17 18 0 8 -8 16 -17 18 -13
2 -18 -3 -18 -18z"/>
<path d="M115 715 c56 -51 81 -67 73 -46 -5 14 -111 101 -122 101 -6 0 16 -25
49 -55z"/>
<path d="M930 566 c0 -35 4 -46 16 -46 12 0 14 9 12 42 -4 59 -28 63 -28 4z"/>
<path d="M725 528 c-77 -23 -142 -43 -144 -44 -4 -4 131 -338 160 -396 l19
-37 137 64 c76 36 139 71 141 79 2 7 -27 78 -64 157 -36 79 -73 161 -81 182
-8 20 -18 37 -22 36 -3 0 -69 -19 -146 -41z"/>
<path d="M1490 526 c0 -8 10 -16 23 -18 l22 -3 3 -233 c2 -215 4 -233 20 -230
15 3 17 25 22 233 5 229 5 230 28 233 12 2 22 10 22 18 0 11 -16 14 -70 14
-54 0 -70 -3 -70 -14z"/>
<path d="M1670 290 c0 -222 2 -250 16 -250 9 0 18 9 21 20 7 28 59 28 66 0 3
-11 12 -20 21 -20 14 0 16 28 16 250 l0 250 -70 0 -70 0 0 -250z m95 15 l0
-200 -25 0 -25 0 -3 190 c-1 104 0 195 3 203 3 7 15 12 27 10 23 -3 23 -3 23
-203z"/>
<path d="M1850 289 c0 -233 1 -250 18 -247 15 3 17 24 22 233 l5 230 25 0 25
0 5 -230 c5 -209 7 -230 23 -233 16 -3 17 14 17 247 l0 251 -70 0 -70 0 0
-251z"/>
<path d="M2030 289 c0 -233 1 -250 18 -247 15 3 17 24 22 233 l5 230 28 3 27
3 0 -235 c0 -229 1 -236 20 -236 19 0 20 7 20 250 l0 250 -70 0 -70 0 0 -251z"/>
<path d="M2212 293 l3 -248 68 -3 c62 -3 67 -1 67 18 0 17 -6 20 -50 20 l-50
0 0 185 0 185 50 0 c28 0 50 5 50 10 0 6 -23 10 -51 10 -43 0 -50 3 -47 18 2
13 15 18 51 20 33 2 47 7 47 18 0 11 -16 14 -70 14 l-70 0 2 -247z"/>
<path d="M2392 293 c3 -226 5 -248 20 -251 16 -3 18 15 20 230 l3 233 27 3 28
3 2 -233 c3 -212 5 -233 21 -236 16 -3 17 14 17 247 l0 251 -70 0 -70 0 2
-247z"/>
<path d="M2570 290 l0 -250 70 0 70 0 0 250 c0 245 0 250 -20 250 -20 0 -21
-5 -20 -217 0 -120 1 -224 0 -232 0 -11 -3 -11 -15 -1 -12 10 -18 10 -30 0
-13 -11 -15 14 -15 219 0 224 -1 231 -20 231 -19 0 -20 -7 -20 -250z"/>
<path d="M2750 290 c0 -243 1 -250 20 -250 13 0 20 7 20 20 0 16 7 20 31 20
22 0 32 -5 36 -20 3 -11 12 -20 19 -20 12 0 14 44 14 250 l0 250 -70 0 -70 0
0 -250z m105 21 c0 -167 -2 -195 -16 -204 -9 -6 -24 -7 -33 -4 -14 6 -16 30
-16 200 0 107 3 197 7 201 4 4 19 6 33 4 l25 -3 0 -194z"/>
<path d="M2930 290 l0 -250 70 0 c63 0 70 2 70 20 0 17 -7 20 -50 20 l-50 0 0
230 c0 223 -1 230 -20 230 -19 0 -20 -7 -20 -250z"/>
<path d="M3110 290 l0 -250 36 0 c20 0 52 9 70 21 l34 21 0 229 0 229 -70 0
-70 0 0 -250z m108 18 l2 -197 -29 -16 c-17 -8 -32 -15 -36 -15 -8 0 -6 416 2
424 4 4 19 6 33 4 l25 -3 3 -197z"/>
<path d="M350 431 c0 -40 4 -50 19 -54 27 -7 31 0 31 55 0 45 -2 48 -25 48
-23 0 -25 -3 -25 -49z"/>
<path d="M505 374 c-26 -49 -61 -113 -77 -141 l-29 -53 25 -11 c31 -14 44 -6
83 57 15 24 31 44 34 44 4 0 24 -41 45 -91 36 -85 41 -91 83 -110 24 -10 45
-18 47 -17 1 2 -35 95 -81 207 l-83 204 -47 -89z"/>
<path d="M221 342 c-1 -12 -8 -25 -16 -28 -9 -4 -17 -26 -21 -55 -5 -39 -10
-49 -25 -49 -23 0 -24 -13 -2 -31 15 -13 13 -14 -12 -19 -43 -8 -44 -30 -1
-30 32 0 36 -3 36 -25 0 -31 7 -31 37 -3 l23 22 39 -22 c46 -26 69 -11 30 19
l-24 19 23 6 c27 8 29 34 3 34 -12 0 -21 8 -24 23 -3 22 -4 22 -14 -3 -6 -14
-19 -32 -28 -40 -15 -13 -19 -12 -36 9 -23 29 -26 99 -4 107 8 4 15 15 15 25
0 10 5 19 10 19 6 0 10 -4 10 -8 0 -5 10 -20 21 -33 l22 -24 -6 25 c-4 14 -7
28 -7 33 0 4 -6 7 -13 7 -8 0 -19 10 -25 23 l-11 22 0 -23z"/>
</g>
</svg>
